<?xml version="1.0" encoding="utf-8"?>
<!-- Generator: Adobe Illustrator 16.0.0, SVG Export Plug-In . SVG Version: 6.00 Build 0)  -->
<!DOCTYPE svg PUBLIC "-//W3C//DTD SVG 1.1//EN" "http://www.w3.org/Graphics/SVG/1.1/DTD/svg11.dtd">
<svg version="1.1" id="Ebene_1" xmlns="http://www.w3.org/2000/svg" xmlns:xlink="http://www.w3.org/1999/xlink" x="0px" y="0px"
	 width="179.035px" height="70.901px" viewBox="0 0 179.035 70.901" enable-background="new 0 0 179.035 70.901"
	 xml:space="preserve">
<path fill="#A9272D" d="M169.575,23.403"/>
<path fill="#B61F29" d="M126.926,21.233c2.818-1.351,12.725-8.296,22.273,3.383c8.648,10.582,10.319,14.569,13.495,12.113
	c3.824-2.959-11.094-32.524-37.198-15.989C124.959,21.403,125.524,21.907,126.926,21.233z"/>
<path fill="#B61F29" d="M134.948,13.213c2.816-1.352,12.726-8.296,22.271,3.383c8.651,10.583,10.322,14.569,13.498,12.113
	c3.824-2.959-11.092-32.524-37.199-15.988C132.981,13.383,133.542,13.888,134.948,13.213z"/>
<path fill="#B61F29" d="M142.672,5.487c2.816-1.352,12.725-8.296,22.272,3.383c8.649,10.581,10.319,14.569,13.497,12.113
	c3.824-2.958-11.096-32.523-37.199-15.989C140.707,5.657,141.269,6.162,142.672,5.487z"/>
<path fill="#A9272D" d="M178.459,20.965"/>
<g>
	<path fill="#1C3553" d="M4.643,29.708h2.984l-2.021,9.526l11.095-9.526h4.13L9.044,39.444l8.229,12.029h-4.22L5.457,39.927
		L3.015,51.474H0L4.643,29.708z"/>
	<path fill="#1C3553" d="M31.353,29.708h3.227l4.189,21.766h-3.286l-1.146-5.668h-10.1l-3.557,5.668h-3.104L31.353,29.708z
		 M25.715,43.364h8.229l-1.749-10.672L25.715,43.364z"/>
	<path fill="#1C3553" d="M46.334,29.708h7.296c0.663,0,1.275,0.015,1.839,0.045c0.563,0.03,1.07,0.105,1.522,0.226
		c0.451,0.121,0.863,0.297,1.235,0.527c0.372,0.231,0.698,0.548,0.98,0.95c0.422,0.563,0.688,1.201,0.799,1.914
		c0.11,0.714,0.075,1.482-0.105,2.307c-0.342,1.688-1.216,3.105-2.623,4.25c-0.342,0.282-0.708,0.539-1.1,0.771
		c-0.392,0.229-0.864,0.428-1.417,0.588c-0.553,0.161-1.186,0.286-1.899,0.377c-0.713,0.09-1.563,0.135-2.547,0.135h-3.526
		l-2.051,9.678h-3.015L46.334,29.708z M47.33,39.265h3.587c0.502,0,1.05-0.025,1.643-0.076c0.593-0.05,1.166-0.195,1.718-0.438
		c0.554-0.24,1.056-0.612,1.508-1.115c0.451-0.502,0.769-1.195,0.949-2.08c0.182-0.844,0.166-1.496-0.045-1.959
		c-0.211-0.463-0.521-0.799-0.935-1.01s-0.869-0.336-1.372-0.377c-0.502-0.04-0.945-0.061-1.326-0.061h-4.221L47.33,39.265z"/>
	<path fill="#B61F29" d="M64.393,29.708h13.656L77.506,32.3H66.864l-1.417,6.754h10.13l-0.542,2.531h-10.13l-1.537,7.236H74.25
		l-0.573,2.652H59.78L64.393,29.708z"/>
	<path fill="#1C3553" d="M83.324,29.708h2.984l-4.04,19.083h10.129l-0.572,2.684H78.712L83.324,29.708z"/>
	<path fill="#1C3553" d="M106.718,29.708h3.226l4.19,21.766h-3.286l-1.146-5.668H99.604l-3.558,5.668h-3.104L106.718,29.708z
		 M101.081,43.364h8.229l-1.748-10.672L101.081,43.364z"/>
	<path fill="#1C3553" d="M121.913,29.708h4.188l6.904,17.998l3.799-17.998h2.772l-4.612,21.766h-3.858l-7.146-18.48l-3.918,18.48
		h-2.744L121.913,29.708z"/>
</g>
<g>
	<g>
		<path fill="#6A6D6D" d="M0.723,64.079h1.932c0.223,0,0.453,0.004,0.693,0.014c0.24,0.009,0.479,0.041,0.712,0.097
			c0.234,0.056,0.46,0.142,0.679,0.259c0.22,0.117,0.422,0.283,0.605,0.5c0.296,0.351,0.507,0.744,0.633,1.178
			c0.126,0.435,0.189,0.883,0.189,1.346c0,0.363-0.034,0.689-0.103,0.979C5.996,68.742,5.908,69,5.8,69.228
			s-0.226,0.424-0.356,0.587c-0.129,0.163-0.259,0.294-0.388,0.394c-0.166,0.135-0.342,0.24-0.527,0.314
			c-0.185,0.073-0.379,0.127-0.583,0.161c-0.202,0.034-0.417,0.054-0.642,0.06c-0.225,0.007-0.461,0.01-0.708,0.01H0.723V64.079z
			 M1.647,69.995h0.906c0.32,0,0.636-0.02,0.947-0.061c0.311-0.039,0.578-0.143,0.8-0.31c0.209-0.16,0.375-0.342,0.495-0.546
			c0.12-0.203,0.208-0.404,0.263-0.605c0.056-0.199,0.089-0.387,0.103-0.559c0.012-0.172,0.018-0.309,0.018-0.406
			c0-0.063-0.004-0.173-0.014-0.334c-0.01-0.16-0.034-0.34-0.074-0.54c-0.041-0.2-0.105-0.408-0.194-0.624
			c-0.089-0.216-0.211-0.41-0.365-0.582c-0.216-0.234-0.464-0.391-0.743-0.467c-0.28-0.078-0.624-0.116-1.031-0.116H1.647V69.995z"
			/>
		<path fill="#6A6D6D" d="M9.699,64.079h0.924v6.674H9.699V64.079z"/>
		<path fill="#6A6D6D" d="M14.459,64.079h4.188v0.795h-3.263v2.07h3.106v0.776h-3.106v2.219h3.337v0.813h-4.262V64.079z"/>
		<path fill="#6A6D6D" d="M27.411,64.079h1.636l1.886,5.5l1.933-5.5h1.524v6.674h-0.906v-6.009l-2.19,6.009h-0.878l-2.108-5.972
			v5.972h-0.896V64.079z"/>
		<path fill="#6A6D6D" d="M38.31,64.079h4.188v0.795h-3.264v2.07h3.106v0.776h-3.106v2.219h3.337v0.813H38.31V64.079z"/>
		<path fill="#6A6D6D" d="M46.371,64.079h1.932c0.222,0,0.453,0.004,0.693,0.014c0.239,0.009,0.478,0.041,0.712,0.097
			c0.233,0.056,0.46,0.142,0.679,0.259c0.219,0.117,0.421,0.283,0.605,0.5c0.296,0.351,0.507,0.744,0.633,1.178
			c0.126,0.435,0.188,0.883,0.188,1.346c0,0.363-0.034,0.689-0.102,0.979c-0.068,0.29-0.156,0.548-0.265,0.776
			c-0.107,0.228-0.226,0.424-0.355,0.587c-0.129,0.163-0.259,0.294-0.388,0.394c-0.166,0.135-0.343,0.24-0.527,0.314
			c-0.185,0.073-0.379,0.127-0.583,0.161c-0.203,0.034-0.417,0.054-0.642,0.06c-0.226,0.007-0.461,0.01-0.708,0.01h-1.876v-6.675
			H46.371z M47.295,69.995h0.906c0.319,0,0.636-0.02,0.946-0.061c0.312-0.039,0.578-0.143,0.8-0.31
			c0.21-0.16,0.375-0.342,0.495-0.546c0.12-0.203,0.208-0.404,0.264-0.605c0.056-0.199,0.089-0.387,0.102-0.559
			c0.012-0.172,0.019-0.309,0.019-0.406c0-0.063-0.005-0.173-0.015-0.334c-0.009-0.16-0.034-0.34-0.074-0.54
			c-0.041-0.2-0.104-0.408-0.193-0.624c-0.089-0.216-0.211-0.41-0.365-0.582c-0.216-0.234-0.464-0.391-0.744-0.467
			c-0.28-0.078-0.624-0.116-1.031-0.116h-1.108V69.995z"/>
		<path fill="#6A6D6D" d="M55.347,64.079h0.924v6.674h-0.924V64.079z"/>
		<path fill="#6A6D6D" d="M60.107,64.079h4.188v0.795h-3.263v2.07h3.105v0.776h-3.105v2.219h3.337v0.813h-4.263V64.079z"/>
		<path fill="#6A6D6D" d="M68.233,64.079h1.285l3.282,5.518v-5.518h0.851v6.674h-1.183l-3.393-5.667v5.667h-0.842L68.233,64.079
			L68.233,64.079z"/>
		<path fill="#6A6D6D" d="M79.742,64.079h0.988l2.699,6.674h-1.008l-0.721-1.738h-3.098l-0.721,1.738h-0.952L79.742,64.079z
			 M78.901,68.267h2.523l-1.229-3.273L78.901,68.267z"/>
		<path fill="#6A6D6D" d="M90.974,65.743c-0.049-0.314-0.199-0.567-0.448-0.759c-0.25-0.19-0.603-0.286-1.059-0.286
			c-0.314,0-0.6,0.045-0.855,0.134s-0.473,0.232-0.651,0.43c-0.148,0.161-0.269,0.333-0.36,0.518
			c-0.093,0.185-0.165,0.372-0.217,0.56c-0.053,0.188-0.088,0.375-0.106,0.559c-0.019,0.186-0.027,0.355-0.027,0.51
			c0,0.141,0.009,0.303,0.027,0.484c0.02,0.181,0.052,0.369,0.098,0.56c0.046,0.19,0.106,0.378,0.185,0.56
			c0.078,0.182,0.177,0.346,0.301,0.494c0.111,0.123,0.234,0.229,0.37,0.314c0.137,0.085,0.279,0.154,0.431,0.203
			c0.15,0.05,0.31,0.085,0.476,0.106c0.167,0.021,0.333,0.032,0.5,0.032c0.382,0,0.693-0.027,0.934-0.083
			c0.241-0.056,0.413-0.099,0.519-0.13V67.97H89.56v-0.767h2.45v3.291c-0.099,0.03-0.223,0.069-0.374,0.116
			c-0.151,0.045-0.328,0.09-0.532,0.133s-0.428,0.08-0.675,0.111s-0.512,0.047-0.795,0.047c-0.616,0-1.116-0.079-1.498-0.236
			s-0.69-0.355-0.925-0.596c-0.333-0.334-0.571-0.722-0.716-1.165c-0.146-0.444-0.218-0.903-0.218-1.378
			c0-0.166,0.017-0.381,0.047-0.643c0.029-0.262,0.096-0.539,0.193-0.832c0.099-0.292,0.243-0.58,0.435-0.863
			c0.19-0.284,0.443-0.533,0.758-0.75c0.167-0.11,0.34-0.197,0.521-0.258c0.183-0.063,0.357-0.109,0.527-0.144
			c0.169-0.034,0.325-0.054,0.467-0.06c0.143-0.007,0.255-0.01,0.342-0.01c0.129,0,0.276,0.006,0.439,0.019
			c0.163,0.013,0.331,0.043,0.503,0.093c0.173,0.049,0.347,0.121,0.522,0.217c0.175,0.096,0.343,0.223,0.504,0.383
			c0.099,0.105,0.177,0.207,0.235,0.306s0.103,0.194,0.129,0.286c0.027,0.093,0.046,0.18,0.056,0.26
			c0.009,0.08,0.017,0.15,0.022,0.213H90.974L90.974,65.743z"/>
		<path fill="#6A6D6D" d="M95.836,64.079h4.188v0.795H96.76v2.07h3.106v0.776H96.76v2.219h3.338v0.813h-4.262V64.079z"/>
		<path fill="#6A6D6D" d="M103.962,64.079h1.284l3.281,5.518v-5.518h0.852v6.674h-1.185l-3.393-5.667v5.667h-0.841L103.962,64.079
			L103.962,64.079z"/>
		<path fill="#6A6D6D" d="M114.778,70.753v-5.879h-2.235v-0.795h5.397v0.795h-2.237v5.879H114.778z"/>
		<path fill="#6A6D6D" d="M122.081,64.079v4.132c0,0.179,0.01,0.333,0.027,0.462c0.019,0.129,0.042,0.24,0.069,0.333
			c0.027,0.093,0.059,0.171,0.092,0.235c0.034,0.064,0.07,0.122,0.107,0.172c0.104,0.141,0.221,0.254,0.351,0.337
			s0.264,0.149,0.397,0.198c0.136,0.05,0.27,0.082,0.401,0.098c0.133,0.016,0.259,0.023,0.375,0.023
			c0.449,0,0.797-0.076,1.039-0.227c0.244-0.151,0.422-0.332,0.537-0.541c0.113-0.209,0.181-0.42,0.198-0.629
			s0.027-0.375,0.027-0.499v-4.095h0.896v4.113c0,0.092-0.004,0.205-0.01,0.338c-0.006,0.132-0.026,0.277-0.062,0.434
			c-0.032,0.157-0.088,0.322-0.16,0.494c-0.074,0.174-0.18,0.343-0.314,0.51c-0.167,0.203-0.349,0.366-0.546,0.489
			c-0.197,0.124-0.396,0.218-0.596,0.282c-0.201,0.064-0.392,0.105-0.568,0.125c-0.18,0.018-0.327,0.027-0.443,0.027
			c-0.16,0-0.344-0.014-0.551-0.041c-0.207-0.028-0.418-0.08-0.633-0.158c-0.217-0.076-0.428-0.185-0.634-0.323
			c-0.206-0.138-0.388-0.319-0.54-0.54c-0.05-0.074-0.099-0.156-0.146-0.246c-0.045-0.089-0.087-0.198-0.124-0.328
			c-0.037-0.129-0.065-0.283-0.088-0.462c-0.021-0.179-0.032-0.394-0.032-0.647v-4.066H122.081z"/>
		<path fill="#6A6D6D" d="M130.585,64.079h2.386c0.086,0,0.19,0.001,0.313,0.004c0.124,0.004,0.256,0.014,0.396,0.033
			c0.144,0.018,0.283,0.049,0.426,0.092s0.273,0.104,0.396,0.185c0.254,0.159,0.438,0.358,0.561,0.595
			c0.119,0.237,0.181,0.492,0.181,0.762c0,0.234-0.041,0.453-0.125,0.656c-0.083,0.203-0.199,0.379-0.347,0.525
			c-0.143,0.143-0.282,0.242-0.422,0.301c-0.139,0.059-0.26,0.104-0.365,0.134c0.16,0.044,0.3,0.096,0.416,0.157
			c0.117,0.063,0.218,0.141,0.298,0.236c0.079,0.095,0.145,0.216,0.192,0.361c0.05,0.145,0.086,0.322,0.111,0.531
			c0.023,0.197,0.047,0.383,0.068,0.556s0.049,0.343,0.079,0.509c0.03,0.167,0.065,0.336,0.105,0.505
			c0.04,0.17,0.094,0.347,0.162,0.532h-0.989c-0.037-0.111-0.071-0.242-0.102-0.393c-0.031-0.151-0.06-0.307-0.083-0.467
			c-0.025-0.16-0.048-0.319-0.064-0.477c-0.02-0.157-0.037-0.301-0.057-0.43c-0.03-0.24-0.07-0.44-0.119-0.602
			c-0.05-0.16-0.127-0.287-0.23-0.383c-0.104-0.096-0.246-0.164-0.424-0.203c-0.178-0.041-0.405-0.061-0.682-0.061h-1.16v3.014
			h-0.925v-6.672H130.585z M131.492,66.944h1.455c0.023,0,0.07,0,0.139,0c0.073,0,0.155-0.004,0.244-0.014
			c0.089-0.01,0.179-0.025,0.267-0.047c0.09-0.021,0.165-0.05,0.228-0.087c0.029-0.019,0.071-0.048,0.123-0.087
			c0.053-0.04,0.104-0.096,0.152-0.166c0.049-0.07,0.091-0.154,0.124-0.253c0.034-0.099,0.051-0.218,0.051-0.358
			c0-0.271-0.053-0.479-0.155-0.622c-0.105-0.144-0.229-0.25-0.369-0.317c-0.142-0.067-0.287-0.107-0.438-0.119
			c-0.149-0.013-0.271-0.02-0.363-0.02h-1.455L131.492,66.944L131.492,66.944z"/>
	</g>
</g>
</svg>
